<mxfile host="app.diagrams.net" modified="2024-01-13T16:58:11.382Z" agent="Mozilla/5.0 (Windows NT 10.0; Win64; x64) AppleWebKit/537.36 (KHTML, like Gecko) Chrome/120.0.0.0 Safari/537.36" etag="WkPyUCNWIy3LnTWGqT5G" version="22.1.18" type="device">
  <diagram name="Page-1" id="yKH2aObgBBXV6B3nH845">
    <mxGraphModel dx="1434" dy="772" grid="1" gridSize="10" guides="1" tooltips="1" connect="1" arrows="1" fold="1" page="1" pageScale="1" pageWidth="827" pageHeight="1169" math="0" shadow="0">
      <root>
        <mxCell id="0" />
        <mxCell id="1" parent="0" />
        <mxCell id="xnNWVfUr5JfgBWjD-W9p-2" value="Baqara" style="whiteSpace=wrap;html=1;" vertex="1" parent="1">
          <mxGeometry x="20" y="70" width="350" height="530" as="geometry" />
        </mxCell>
        <mxCell id="xnNWVfUr5JfgBWjD-W9p-3" value="&lt;font style=&quot;font-size: 24px;&quot;&gt;Bquara&lt;/font&gt;" style="whiteSpace=wrap;html=1;aspect=fixed;fontFamily=Helvetica;" vertex="1" parent="1">
          <mxGeometry x="55" y="90" width="280" height="280" as="geometry" />
        </mxCell>
      </root>
    </mxGraphModel>
  </diagram>
</mxfile>
